# xmcd
# 
# Track frame offsets:
#     183
#     28198
#     39688
#     53548
#     65583
#     83518
#     102058
#     114328
#     126453
#     138928
#     165205
#     191965
#     207915
#     219985
#     232788
#     244890
# 
# Disc length: 3556
# 
# Revision: 18
# Processed by: cddbd v1.5.2PL0 Copyright (c) Steve Scherf et al.
# Submitted via: fre:ac v1.0.31
# 
DISCID=d50de210
DTITLE=Various Artist - Blues Legends
DYEAR=1993
DGENRE=Blues
TTITLE0=B. B. King - Payin' the Cost to Be the Boss
TTITLE1=Muddy Waters - Goin' Home
TTITLE2=Howlin Wolf - Highway 49
TTITLE3=John Lee Hooker - Crawling King Snake
TTITLE4=Big Joe Turner - Roll 'Em Pete
TTITLE5=Memphis Slim - Gamblers Blues
TTITLE6=Elmore James - Mean Mistreatin' Mama
TTITLE7=Jimmy Reed - My Baby Is So Sweet
TTITLE8=Howlin Wolf - Cause of It All
TTITLE9=B. B. King - Guess Who
TTITLE10=Otis Rush - It's Hard for Me to Believe My Baby
TTITLE11=Little Walter - Walters Blues
TTITLE12=Jimmy Reed - Honest I Do
TTITLE13=Muddy Waters - Forty Days and Forty Nights
TTITLE14=John Lee Hooker - I'm in the Mood
TTITLE15=B.B. King - The Thrill Is Gone
EXTD=
EXTT0=
EXTT1=
EXTT2=
EXTT3=
EXTT4=
EXTT5=
EXTT6=
EXTT7=
EXTT8=
EXTT9=
EXTT10=
EXTT11=
EXTT12=
EXTT13=
EXTT14=
EXTT15=
PLAYORDER=
